<svg width="171" height="171" viewBox="0 0 171 171" fill="none" xmlns="http://www.w3.org/2000/svg">
<path d="M164.091 91.9956C163.758 91.9814 163.452 91.8883 163.172 91.7163C162.893 91.5443 162.67 91.2913 162.504 90.9573C162.338 90.6232 162.265 90.2165 162.285 89.7369C162.305 89.2706 162.406 88.8579 162.588 88.4986C162.777 88.1463 163.022 87.8665 163.325 87.6591C163.633 87.4587 163.978 87.3499 164.359 87.3327L164.318 88.3019C164.118 88.3134 163.918 88.3716 163.72 88.4766C163.529 88.5886 163.365 88.7485 163.229 88.9562C163.1 89.171 163.029 89.4315 163.016 89.7379C162.999 90.1375 163.093 90.4485 163.297 90.6706C163.501 90.8928 163.769 91.011 164.102 91.0252C164.389 91.0373 164.625 90.9706 164.812 90.8251C164.998 90.6862 165.145 90.5089 165.255 90.2934C165.37 90.0781 165.496 89.7832 165.632 89.4086C165.798 88.9686 165.95 88.6147 166.088 88.347C166.232 88.0862 166.439 87.8648 166.707 87.6827C166.974 87.5072 167.321 87.4285 167.748 87.4466C168.114 87.4622 168.433 87.5625 168.706 87.7476C168.978 87.9393 169.183 88.2016 169.323 88.5345C169.462 88.874 169.522 89.2669 169.503 89.7132C169.474 90.4059 169.28 90.9482 168.923 91.34C168.573 91.7322 168.137 91.9505 167.614 91.9951L167.656 91.016C167.938 90.9746 168.191 90.8418 168.414 90.6177C168.637 90.3937 168.757 90.0818 168.774 89.6822C168.789 89.3158 168.705 89.0187 168.521 88.7907C168.344 88.5629 168.082 88.4417 167.736 88.427C167.463 88.4154 167.237 88.4759 167.058 88.6084C166.885 88.7479 166.744 88.922 166.635 89.1309C166.533 89.3401 166.414 89.6287 166.278 89.9966C166.112 90.4433 165.957 90.8003 165.812 91.0678C165.667 91.3418 165.454 91.5697 165.173 91.7512C164.898 91.9331 164.537 92.0145 164.091 91.9956Z" fill="#F0F0F0" fill-opacity="0.7"/>
<path d="M168.523 98.9169C168.397 99.7677 168.083 100.439 167.579 100.931C167.082 101.424 166.455 101.722 165.698 101.826L165.838 100.876C166.326 100.766 166.735 100.533 167.063 100.178C167.399 99.8226 167.609 99.3583 167.693 98.7845C167.76 98.3294 167.709 97.904 167.538 97.5082C167.373 97.1199 167.098 96.7897 166.713 96.5174C166.335 96.2526 165.868 96.0794 165.314 95.9978C164.767 95.9171 164.274 95.9488 163.835 96.093C163.395 96.2438 163.036 96.4807 162.759 96.8038C162.488 97.1345 162.319 97.5273 162.252 97.9824C162.168 98.5562 162.231 99.0609 162.443 99.4965C162.662 99.9331 162.989 100.274 163.425 100.521L163.285 101.47C162.59 101.152 162.073 100.685 161.732 100.069C161.398 99.4537 161.294 98.7206 161.42 97.8698C161.516 97.2169 161.749 96.6617 162.12 96.2042C162.497 95.7476 162.974 95.4169 163.55 95.2121C164.132 95.0148 164.765 94.9667 165.451 95.0678C166.144 95.1699 166.74 95.3993 167.24 95.756C167.739 96.1193 168.1 96.5735 168.323 97.1185C168.552 97.6645 168.619 98.2639 168.523 98.9169Z" fill="#F0F0F0" fill-opacity="0.7"/>
<path d="M159.502 106.838L162.747 105.765L162.991 104.806L160.201 104.095L160.425 103.213L167.257 104.954L166.684 107.202C166.487 107.977 166.151 108.511 165.678 108.803C165.211 109.097 164.671 109.166 164.057 109.009C163.501 108.868 163.092 108.598 162.828 108.201C162.571 107.805 162.476 107.303 162.542 106.693L159.248 107.836L159.502 106.838ZM163.631 104.969L163.303 106.258C163.048 107.259 163.359 107.872 164.238 108.096C165.117 108.32 165.683 107.931 165.939 106.929L166.267 105.641L163.631 104.969Z" fill="#F0F0F0" fill-opacity="0.7"/>
<path d="M164.022 115.7C163.795 116.312 163.447 116.809 162.979 117.19C162.508 117.577 161.961 117.815 161.338 117.904C160.721 117.995 160.087 117.92 159.437 117.679C158.787 117.438 158.255 117.08 157.841 116.607C157.432 116.135 157.176 115.599 157.072 114.999C156.965 114.405 157.025 113.801 157.253 113.189C157.48 112.576 157.83 112.073 158.303 111.68C158.774 111.293 159.317 111.054 159.934 110.963C160.557 110.874 161.194 110.95 161.844 111.191C162.494 111.432 163.023 111.788 163.431 112.26C163.846 112.733 164.105 113.271 164.21 113.871C164.312 114.478 164.249 115.087 164.022 115.7ZM163.225 115.404C163.394 114.948 163.44 114.499 163.362 114.058C163.288 113.625 163.092 113.232 162.775 112.88C162.461 112.536 162.042 112.267 161.517 112.072C160.998 111.88 160.505 111.811 160.037 111.865C159.567 111.925 159.159 112.094 158.815 112.371C158.474 112.657 158.219 113.028 158.05 113.484C157.883 113.934 157.839 114.377 157.92 114.812C157.998 115.254 158.193 115.646 158.507 115.99C158.824 116.342 159.242 116.615 159.761 116.807C160.286 117.002 160.78 117.068 161.244 117.005C161.712 116.951 162.117 116.781 162.458 116.495C162.802 116.218 163.058 115.854 163.225 115.404Z" fill="#F0F0F0" fill-opacity="0.7"/>
<path d="M155.309 119.606L154.216 121.854L153.578 121.544L155.068 118.477L161.409 121.558L161.012 122.376L155.309 119.606Z" fill="#F0F0F0" fill-opacity="0.7"/>
<path d="M152.747 124.414L151.499 126.58L150.884 126.226L152.586 123.271L158.695 126.79L158.241 127.578L152.747 124.414Z" fill="#F0F0F0" fill-opacity="0.7"/>
<path d="M147.093 137.517C146.525 137.085 146.116 136.594 145.865 136.043C145.62 135.495 145.55 134.91 145.656 134.287C145.763 133.673 146.053 133.056 146.526 132.435L147.883 130.653L153.492 134.924L152.135 136.706C151.662 137.327 151.144 137.77 150.581 138.037C150.019 138.313 149.439 138.403 148.841 138.308C148.248 138.217 147.666 137.954 147.093 137.517ZM147.221 132.876C146.663 133.608 146.425 134.311 146.507 134.985C146.589 135.659 146.972 136.257 147.656 136.778C148.34 137.299 149.018 137.509 149.69 137.408C150.362 137.317 150.979 136.903 151.541 136.166L152.304 135.163L147.984 131.874L147.221 132.876Z" fill="#F0F0F0" fill-opacity="0.7"/>
<path d="M145.468 144.526C145.016 144.998 144.5 145.315 143.919 145.479C143.333 145.647 142.737 145.648 142.13 145.482C141.527 145.321 140.976 145.001 140.475 144.521C139.974 144.042 139.627 143.502 139.435 142.903C139.248 142.308 139.225 141.715 139.368 141.122C139.506 140.535 139.801 140.005 140.253 139.533C140.705 139.061 141.226 138.738 141.816 138.565C142.402 138.397 142.996 138.393 143.598 138.555C144.205 138.72 144.759 139.043 145.26 139.523C145.761 140.002 146.105 140.539 146.293 141.134C146.485 141.733 146.51 142.329 146.367 142.922C146.22 143.519 145.92 144.054 145.468 144.526ZM144.854 143.938C145.191 143.586 145.411 143.192 145.515 142.756C145.618 142.33 145.595 141.892 145.443 141.442C145.292 141.002 145.015 140.589 144.61 140.202C144.21 139.819 143.785 139.559 143.334 139.423C142.879 139.292 142.438 139.285 142.011 139.402C141.585 139.53 141.203 139.769 140.867 140.121C140.535 140.467 140.319 140.856 140.22 141.288C140.117 141.724 140.14 142.162 140.292 142.601C140.443 143.051 140.718 143.467 141.118 143.849C141.522 144.237 141.95 144.494 142.401 144.621C142.852 144.757 143.29 144.762 143.717 144.634C144.143 144.517 144.522 144.285 144.854 143.938Z" fill="#F0F0F0" fill-opacity="0.7"/>
<path d="M133.155 155.021L130.162 148.392L131.031 147.7L135.894 151.19L133.581 145.669L134.449 144.977L140.249 149.37L139.459 149.999L134.671 146.155L137.097 151.881L136.307 152.51L131.281 148.881L133.937 154.398L133.155 155.021Z" fill="#F0F0F0" fill-opacity="0.7"/>
<path d="M121.861 153.558L122.64 153.087L128.656 155.955L125.77 151.191L126.549 150.719L130.201 156.749L129.423 157.221L123.401 154.344L126.292 159.117L125.514 159.588L121.861 153.558Z" fill="#F0F0F0" fill-opacity="0.7"/>
<path d="M104.262 162.263C104.169 161.943 104.159 161.623 104.232 161.303C104.305 160.983 104.474 160.691 104.737 160.426C105 160.162 105.362 159.963 105.823 159.829C106.271 159.698 106.695 159.661 107.093 159.719C107.487 159.784 107.831 159.927 108.124 160.147C108.413 160.376 108.627 160.668 108.765 161.023L107.834 161.295C107.759 161.108 107.64 160.938 107.477 160.784C107.309 160.638 107.105 160.535 106.865 160.473C106.62 160.419 106.351 160.435 106.056 160.521C105.672 160.633 105.408 160.821 105.263 161.086C105.117 161.35 105.091 161.642 105.185 161.962C105.265 162.238 105.404 162.44 105.601 162.57C105.793 162.702 106.008 162.785 106.247 162.819C106.488 162.86 106.808 162.885 107.206 162.894C107.676 162.91 108.06 162.94 108.358 162.985C108.651 163.039 108.927 163.163 109.185 163.359C109.437 163.556 109.623 163.86 109.742 164.269C109.845 164.621 109.852 164.956 109.764 165.273C109.67 165.593 109.487 165.871 109.216 166.11C108.939 166.351 108.586 166.533 108.157 166.658C107.492 166.852 106.916 166.843 106.431 166.63C105.947 166.424 105.6 166.081 105.391 165.6L106.332 165.326C106.461 165.58 106.668 165.776 106.952 165.916C107.235 166.055 107.569 166.069 107.953 165.957C108.305 165.855 108.56 165.68 108.717 165.433C108.876 165.192 108.907 164.905 108.81 164.572C108.733 164.31 108.604 164.115 108.421 163.988C108.233 163.869 108.023 163.791 107.79 163.755C107.559 163.725 107.248 163.705 106.856 163.694C106.38 163.68 105.992 163.647 105.692 163.596C105.386 163.546 105.102 163.417 104.84 163.209C104.579 163.007 104.387 162.691 104.262 162.263Z" fill="#F0F0F0" fill-opacity="0.7"/>
<path d="M99.1161 168.656C98.2695 168.808 97.533 168.723 96.9067 168.402C96.2815 168.087 95.7993 167.587 95.4602 166.903L96.4052 166.734C96.6645 167.161 97.0152 167.475 97.457 167.673C97.9001 167.878 98.4071 167.93 98.978 167.828C99.4308 167.747 99.8177 167.563 100.139 167.275C100.454 166.995 100.68 166.629 100.816 166.178C100.947 165.735 100.963 165.238 100.864 164.687C100.767 164.142 100.58 163.684 100.304 163.314C100.021 162.945 99.6826 162.68 99.2883 162.52C98.8886 162.368 98.4624 162.333 98.0096 162.414C97.4387 162.516 96.9804 162.737 96.6347 163.076C96.2903 163.422 96.0706 163.841 95.9755 164.332L95.0305 164.501C95.1114 163.741 95.3899 163.102 95.866 162.584C96.3433 162.072 97.0053 161.74 97.8518 161.589C98.5015 161.472 99.1022 161.517 99.6537 161.724C100.206 161.936 100.671 162.283 101.049 162.764C101.421 163.253 101.668 163.839 101.79 164.521C101.913 165.21 101.885 165.848 101.706 166.436C101.52 167.024 101.204 167.511 100.758 167.896C100.313 168.287 99.7658 168.54 99.1161 168.656Z" fill="#F0F0F0" fill-opacity="0.7"/>
<path d="M88.6405 162.628L90.6865 165.365L91.6738 165.293L91.4629 162.421L92.3705 162.354L92.8867 169.385L90.573 169.555C89.7751 169.614 89.1626 169.465 88.7353 169.108C88.3086 168.759 88.072 168.268 88.0256 167.636C87.9836 167.065 88.1093 166.591 88.4026 166.215C88.6963 165.846 89.1425 165.596 89.7412 165.465L87.6133 162.703L88.6405 162.628ZM91.7221 165.951L90.3957 166.049C89.3652 166.124 88.8831 166.614 88.9495 167.518C89.0159 168.423 89.5643 168.837 90.5949 168.761L91.9213 168.664L91.7221 165.951Z" fill="#F0F0F0" fill-opacity="0.7"/>
<path d="M81.4085 169.729C80.7555 169.708 80.1739 169.537 79.6636 169.214C79.1466 168.892 78.7468 168.449 78.464 167.887C78.181 167.331 78.0502 166.707 78.0716 166.014C78.093 165.321 78.2622 164.702 78.5791 164.159C78.8959 163.621 79.3222 163.208 79.8581 162.917C80.3873 162.627 80.9784 162.492 81.6314 162.512C82.2844 162.532 82.8728 162.704 83.3964 163.027C83.9133 163.35 84.3133 163.789 84.5963 164.344C84.879 164.907 85.0097 165.534 84.9883 166.227C84.9669 166.92 84.7978 167.536 84.4811 168.073C84.1642 168.616 83.7378 169.034 83.2019 169.324C82.6593 169.614 82.0615 169.749 81.4085 169.729ZM81.4348 168.879C81.9212 168.894 82.3612 168.794 82.7546 168.58C83.1412 168.371 83.451 168.061 83.6838 167.648C83.9098 167.241 84.0315 166.758 84.0488 166.198C84.0658 165.645 83.9743 165.156 83.774 164.729C83.5671 164.303 83.2772 163.97 82.9044 163.732C82.5247 163.5 82.0916 163.377 81.6052 163.362C81.1254 163.347 80.6921 163.447 80.3053 163.662C79.9118 163.876 79.6021 164.187 79.3761 164.593C79.1432 165.006 79.0183 165.489 79.0012 166.043C78.9839 166.602 79.0788 167.092 79.2859 167.512C79.4862 167.938 79.7762 168.268 80.1559 168.499C80.5287 168.738 80.955 168.864 81.4348 168.879Z" fill="#F0F0F0" fill-opacity="0.7"/>
<path d="M75.0382 162.716L72.5584 162.399L72.6485 161.694L76.0309 162.127L75.1369 169.12L74.2342 169.004L75.0382 162.716Z" fill="#F0F0F0" fill-opacity="0.7"/>
<path d="M69.6849 161.825L67.2328 161.338L67.3712 160.642L70.7158 161.306L69.3421 168.221L68.4495 168.044L69.6849 161.825Z" fill="#F0F0F0" fill-opacity="0.7"/>
<path d="M55.4551 160.645C55.6829 159.969 56.0179 159.424 56.4599 159.01C56.8998 158.603 57.4319 158.349 58.0562 158.25C58.6721 158.155 59.3497 158.233 60.0888 158.482L62.2115 159.197L59.9595 165.878L57.8368 165.162C57.0977 164.913 56.5117 164.564 56.079 164.116C55.6378 163.672 55.3665 163.151 55.2652 162.554C55.1618 161.964 55.2251 161.327 55.4551 160.645ZM59.8932 159.281C59.0214 158.987 58.2793 158.987 57.667 159.28C57.0546 159.573 56.6111 160.127 56.3363 160.942C56.0616 161.757 56.0793 162.466 56.3892 163.07C56.6908 163.679 57.2806 164.131 58.1587 164.427L59.3527 164.829L61.0872 159.684L59.8932 159.281Z" fill="#F0F0F0" fill-opacity="0.7"/>
<path d="M48.2893 161.314C47.6985 161.035 47.2335 160.645 46.8942 160.146C46.5489 159.644 46.3587 159.079 46.3237 158.45C46.2858 157.828 46.4149 157.203 46.7109 156.576C47.0069 155.949 47.4087 155.45 47.9162 155.077C48.4209 154.711 48.9768 154.502 49.584 154.449C50.1852 154.394 50.7811 154.506 51.3719 154.785C51.9627 155.064 52.4338 155.456 52.7851 155.961C53.1304 156.463 53.322 157.025 53.3599 157.648C53.395 158.276 53.2645 158.904 52.9684 159.531C52.6724 160.158 52.2721 160.654 51.7674 161.02C51.2598 161.393 50.7025 161.605 50.0953 161.658C49.4821 161.707 48.8801 161.592 48.2893 161.314ZM48.6522 160.545C49.0923 160.753 49.5355 160.837 49.982 160.797C50.4195 160.76 50.8274 160.599 51.2057 160.313C51.5751 160.03 51.8793 159.636 52.1184 159.129C52.3547 158.629 52.466 158.143 52.4524 157.672C52.4328 157.199 52.2996 156.778 52.0527 156.411C51.797 156.047 51.4491 155.761 51.009 155.553C50.575 155.348 50.1377 155.267 49.6973 155.31C49.2509 155.35 48.843 155.511 48.4736 155.794C48.0954 156.08 47.7881 156.473 47.5518 156.973C47.3128 157.48 47.2044 157.967 47.2269 158.434C47.2405 158.905 47.3751 159.323 47.6309 159.687C47.8777 160.054 48.2182 160.34 48.6522 160.545Z" fill="#F0F0F0" fill-opacity="0.7"/>
<path d="M34.4575 152.951L39.8068 148.023L40.7367 148.629L38.9569 154.344L43.4678 150.409L44.3977 151.015L42.0558 157.904L41.2097 157.353L43.3497 151.597L38.6797 155.704L37.8336 155.152L39.6946 149.239L35.2952 153.497L34.4575 152.951Z" fill="#F0F0F0" fill-opacity="0.7"/>
<path d="M32.2982 141.795L32.991 142.385L32.1662 148.999L35.7775 144.758L36.4703 145.348L31.8994 150.715L31.2066 150.125L32.038 143.504L28.4201 147.752L27.7273 147.162L32.2982 141.795Z" fill="#F0F0F0" fill-opacity="0.7"/>
<path d="M18.448 127.878C18.7218 127.688 19.0221 127.577 19.3488 127.545C19.6755 127.513 20.006 127.58 20.3402 127.745C20.6743 127.911 20.9783 128.191 21.2521 128.585C21.5183 128.969 21.6875 129.358 21.7597 129.755C21.8227 130.149 21.7964 130.521 21.681 130.869C21.5562 131.215 21.3473 131.51 21.0542 131.754L20.5009 130.957C20.6538 130.827 20.7773 130.66 20.8715 130.457C20.9564 130.252 20.99 130.025 20.9723 129.778C20.9454 129.529 20.8445 129.278 20.6696 129.026C20.4414 128.698 20.1789 128.507 19.882 128.453C19.5851 128.4 19.2997 128.468 19.0259 128.658C18.7905 128.822 18.6426 129.018 18.5822 129.246C18.518 129.469 18.5075 129.7 18.5509 129.938C18.5888 130.179 18.6668 130.49 18.785 130.871C18.9192 131.321 19.0123 131.695 19.0642 131.992C19.1068 132.287 19.0764 132.588 18.9731 132.895C18.866 133.197 18.6373 133.469 18.2868 133.712C17.9856 133.922 17.6706 134.035 17.3418 134.052C17.0091 134.064 16.6867 133.979 16.3744 133.799C16.0583 133.612 15.7729 133.336 15.5181 132.969C15.1227 132.399 14.9486 131.851 14.9959 131.323C15.0378 130.798 15.2532 130.361 15.6423 130.009L16.2013 130.814C16.0017 131.018 15.8809 131.276 15.8387 131.59C15.7966 131.903 15.8896 132.224 16.1177 132.552C16.3269 132.854 16.5736 133.039 16.8579 133.11C17.1367 133.184 17.4185 133.122 17.7032 132.925C17.9277 132.769 18.0712 132.584 18.1337 132.37C18.187 132.154 18.1938 131.931 18.1543 131.698C18.1093 131.47 18.0296 131.168 17.9152 130.793C17.7771 130.337 17.6849 129.959 17.6385 129.658C17.5883 129.352 17.6203 129.042 17.7346 128.727C17.8433 128.416 18.0812 128.133 18.448 127.878Z" fill="#F0F0F0" fill-opacity="0.7"/>
<path d="M10.7759 125.116C10.3605 124.363 10.2044 123.638 10.3075 122.941C10.4047 122.248 10.7229 121.631 11.262 121.09L11.7257 121.931C11.404 122.314 11.2201 122.746 11.174 123.229C11.122 123.714 11.2361 124.211 11.5162 124.719C11.7384 125.121 12.0373 125.429 12.4129 125.64C12.7794 125.849 13.1981 125.946 13.6689 125.93C14.1306 125.911 14.6067 125.766 15.097 125.496C15.5815 125.229 15.9548 124.905 16.2169 124.524C16.4758 124.138 16.6175 123.732 16.6421 123.307C16.6576 122.88 16.5543 122.465 16.3321 122.062C16.052 121.554 15.6956 121.191 15.2631 120.973C14.8247 120.758 14.3577 120.684 13.8622 120.752L13.3985 119.912C14.1436 119.744 14.8383 119.803 15.4823 120.087C16.1206 120.374 16.6474 120.895 17.0628 121.648C17.3816 122.226 17.532 122.809 17.514 123.397C17.4903 123.989 17.3112 124.541 16.9768 125.053C16.6334 125.562 16.1581 125.984 15.551 126.319C14.9381 126.657 14.3247 126.835 13.7108 126.854C13.0936 126.867 12.5314 126.725 12.024 126.426C11.5107 126.13 11.0947 125.694 10.7759 125.116Z" fill="#F0F0F0" fill-opacity="0.7"/>
<path d="M13.1522 113.314L11.2165 116.131L11.6021 117.043L14.2546 115.921L14.6091 116.759L8.11604 119.505L7.21228 117.368C6.90064 116.632 6.84497 116.004 7.04527 115.485C7.23943 114.968 7.62816 114.587 8.21147 114.34C8.73951 114.117 9.22857 114.083 9.67865 114.241C10.1226 114.4 10.5026 114.743 10.8188 115.268L12.751 112.366L13.1522 113.314ZM10.9943 117.3L10.4762 116.075C10.0736 115.123 9.45484 114.824 8.6198 115.177C7.78475 115.53 7.5685 116.183 7.97104 117.134L8.48914 118.359L10.9943 117.3Z" fill="#F0F0F0" fill-opacity="0.7"/>
<path d="M4.21648 109.069C4.02658 108.444 4.00276 107.838 4.14503 107.251C4.28537 106.658 4.57665 106.137 5.01889 105.689C5.45475 105.244 6.00438 104.92 6.66778 104.718C7.33117 104.517 7.97119 104.479 8.58784 104.605C9.1981 104.733 9.72649 105.005 10.173 105.42C10.6176 105.828 10.9348 106.345 11.1247 106.97C11.3146 107.595 11.3404 108.207 11.202 108.807C11.0617 109.4 10.7736 109.919 10.3377 110.365C9.89547 110.813 9.34265 111.138 8.67926 111.339C8.01586 111.541 7.37903 111.578 6.76877 111.45C6.15212 111.323 5.62054 111.053 5.17403 110.638C4.72557 110.217 4.40639 109.694 4.21648 109.069ZM5.02978 108.822C5.17125 109.287 5.40661 109.672 5.73589 109.976C6.05685 110.276 6.45023 110.47 6.91605 110.558C7.37354 110.642 7.8702 110.603 8.40602 110.44C8.93546 110.279 9.37011 110.036 9.70996 109.709C10.0479 109.377 10.2701 108.996 10.3765 108.566C10.4746 108.132 10.4529 107.683 10.3114 107.217C10.1719 106.758 9.93848 106.379 9.61115 106.082C9.28187 105.777 8.88849 105.583 8.43099 105.499C7.96517 105.411 7.46755 105.447 6.93811 105.608C6.40229 105.771 5.96861 106.018 5.63707 106.348C5.29722 106.674 5.07824 107.055 4.98013 107.488C4.87371 107.918 4.89026 108.362 5.02978 108.822Z" fill="#F0F0F0" fill-opacity="0.7"/>
<path d="M8.8145 100.823L8.31799 98.3725L9.01384 98.2315L9.69109 101.574L2.78152 102.974L2.60079 102.082L8.8145 100.823Z" fill="#F0F0F0" fill-opacity="0.7"/>
<path d="M7.91332 95.2896L7.59628 92.8098L8.30055 92.7197L8.73299 96.1022L1.73991 96.9963L1.6245 96.0936L7.91332 95.2896Z" fill="#F0F0F0" fill-opacity="0.7"/>
<path d="M4.49299 81.1729C5.20632 81.1757 5.8291 81.3214 6.36132 81.6102C6.88688 81.8989 7.29524 82.3238 7.58641 82.8849C7.87094 83.4393 8.01169 84.1065 8.00868 84.8865L8.00004 87.1265L0.950089 87.0993L0.958736 84.8593C0.961747 84.0793 1.10765 83.4132 1.39645 82.861C1.67861 82.3021 2.08691 81.8803 2.62135 81.5957C3.14912 81.3111 3.773 81.1702 4.49299 81.1729ZM7.18842 84.9534C7.19197 84.0334 6.95802 83.3291 6.48657 82.8406C6.01512 82.3522 5.3494 82.1063 4.4894 82.1029C3.62941 82.0996 2.96181 82.3404 2.4866 82.8252C2.00475 83.3034 1.76204 84.0058 1.75846 84.9324L1.7536 86.1924L7.18356 86.2134L7.18842 84.9534Z" fill="#F0F0F0" fill-opacity="0.7"/>
<path d="M1.53479 74.7353C1.61016 74.0863 1.83016 73.5213 2.19477 73.0401C2.56015 72.5524 3.03497 72.1914 3.61922 71.9572C4.19685 71.7223 4.83001 71.6448 5.51872 71.7248C6.20742 71.8048 6.80929 72.0257 7.32431 72.3876C7.83272 72.7486 8.20885 73.2084 8.4527 73.767C8.69733 74.3189 8.78195 74.9193 8.70657 75.5683C8.6312 76.2173 8.41043 76.7889 8.04428 77.2833C7.6789 77.7711 7.2074 78.1325 6.62977 78.3674C6.04552 78.6015 5.40904 78.6786 4.72034 78.5986C4.03163 78.5186 3.43308 78.2981 2.92468 77.937C2.40965 77.5752 2.03021 77.115 1.78635 76.5565C1.54327 75.9913 1.45941 75.3843 1.53479 74.7353ZM2.37911 74.8334C2.32296 75.3168 2.38516 75.7636 2.5657 76.1738C2.74039 76.5767 3.02364 76.9116 3.41546 77.1786C3.80142 77.4382 4.27253 77.6003 4.82879 77.6649C5.37843 77.7287 5.87415 77.6789 6.31596 77.5155C6.75854 77.3454 7.11432 77.0847 7.38332 76.7334C7.64646 76.3747 7.8061 75.9536 7.86225 75.4702C7.91763 74.9934 7.85466 74.5532 7.67335 74.1496C7.49281 73.7394 7.20956 73.4045 6.8236 73.1449C6.43179 72.8779 5.96106 72.7125 5.41142 72.6486C4.85516 72.584 4.35905 72.6371 3.9231 72.808C3.48129 72.9714 3.12881 73.2325 2.86567 73.5912C2.59668 73.9425 2.43449 74.3566 2.37911 74.8334Z" fill="#F0F0F0" fill-opacity="0.7"/>
<path d="M4.95599 59.0949L11.3459 62.5699L11.0718 63.6456L5.08773 63.8031L10.267 66.8047L9.99301 67.8803L2.71685 67.8841L2.9662 66.9054L9.10407 67.076L3.71175 63.9789L3.9611 63.0001L10.1586 62.8557L4.70912 60.0639L4.95599 59.0949Z" fill="#F0F0F0" fill-opacity="0.7"/>
<path d="M14.8861 53.3164L14.5473 54.161L8.01518 55.4844L13.1848 57.558L12.8461 58.4026L6.30279 55.7781L6.64155 54.9335L13.183 53.6138L8.00406 51.5365L8.34282 50.6919L14.8861 53.3164Z" fill="#F0F0F0" fill-opacity="0.7"/>
<path d="M23.5694 35.8685C23.8368 36.0675 24.0377 36.3168 24.1722 36.6163C24.3066 36.9158 24.3485 37.2504 24.2978 37.6199C24.2472 37.9894 24.0786 38.3667 23.792 38.7517C23.5133 39.1261 23.1977 39.4106 22.8451 39.6052C22.4911 39.7905 22.1308 39.8838 21.7641 39.8852C21.3961 39.8772 21.0497 39.7731 20.7249 39.5729L21.3041 38.7948C21.4765 38.8982 21.6741 38.9621 21.8968 38.9867C22.1182 39.0019 22.3434 38.9617 22.5724 38.8662C22.8 38.7614 23.0054 38.5859 23.1885 38.3399C23.4273 38.0191 23.5248 37.7094 23.4811 37.4109C23.4373 37.1123 23.2817 36.8636 23.0143 36.6646C22.7844 36.4934 22.5514 36.4156 22.3155 36.4311C22.0835 36.4413 21.8617 36.5048 21.6502 36.6215C21.4332 36.7343 21.1632 36.9073 20.8401 37.1405C20.4557 37.4113 20.1311 37.6184 19.8663 37.7621C19.6001 37.8964 19.3051 37.9635 18.981 37.9633C18.661 37.9578 18.3299 37.8277 17.9876 37.5729C17.6935 37.354 17.4859 37.0914 17.3647 36.7852C17.2476 36.4736 17.225 36.1411 17.2971 35.7875C17.3731 35.4285 17.5445 35.0699 17.8112 34.7116C18.2251 34.1554 18.6899 33.8157 19.2054 33.6925C19.7156 33.5653 20.1992 33.6302 20.6562 33.8872L20.071 34.6733C19.8146 34.5489 19.5311 34.5166 19.2207 34.5764C18.9102 34.6362 18.6356 34.8266 18.3968 35.1474C18.1778 35.4416 18.0802 35.7346 18.104 36.0265C18.1223 36.3144 18.2706 36.5619 18.5487 36.7689C18.7679 36.9321 18.9889 37.0093 19.2115 37.0005C19.4328 36.9823 19.6472 36.9175 19.8548 36.8061C20.0571 36.6907 20.3178 36.5191 20.6369 36.2912C21.0253 36.0152 21.3545 35.8073 21.6247 35.6676C21.8988 35.5226 22.2032 35.4542 22.5379 35.4623C22.8673 35.4664 23.2111 35.6018 23.5694 35.8685Z" fill="#F0F0F0" fill-opacity="0.7"/>
<path d="M23.9255 27.498C24.5088 26.8661 25.1472 26.4891 25.8405 26.367C26.529 26.2404 27.215 26.3474 27.8985 26.6881L27.2474 27.3935C26.7824 27.2092 26.3138 27.1713 25.8417 27.2798C25.3646 27.3838 24.9294 27.6489 24.536 28.0751C24.224 28.4131 24.0269 28.7937 23.9447 29.2169C23.8622 29.6306 23.9029 30.0583 24.0668 30.5C24.2303 30.9322 24.5178 31.3382 24.9293 31.718C25.3359 32.0934 25.7612 32.3453 26.2051 32.4738C26.6535 32.5974 27.0831 32.6038 27.4938 32.493C27.9042 32.3728 28.2653 32.1437 28.5774 31.8057C28.9708 31.3795 29.2027 30.9267 29.2732 30.4474C29.3387 29.9636 29.2611 29.4973 29.0403 29.0485L29.6915 28.3431C30.0856 28.9972 30.2495 29.6748 30.1832 30.3757C30.112 31.072 29.7847 31.7362 29.2014 32.3681C28.7537 32.8531 28.2478 33.1799 27.6837 33.3488C27.1147 33.5131 26.5346 33.5174 25.9433 33.3617C25.3517 33.1967 24.8012 32.879 24.2917 32.4087C23.7774 31.9339 23.4143 31.4083 23.2026 30.8317C22.9953 30.2503 22.9533 29.6717 23.0765 29.0959C23.1948 28.5156 23.4778 27.983 23.9255 27.498Z" fill="#F0F0F0" fill-opacity="0.7"/>
<path d="M35.6826 26.1626L32.3968 25.2225L31.6549 25.878L33.5617 28.0363L32.8797 28.6388L28.2119 23.3555L29.9506 21.8194C30.5501 21.2897 31.1278 21.0373 31.6836 21.0623C32.2349 21.0822 32.7203 21.3295 33.1396 21.8041C33.5192 22.2338 33.7061 22.6869 33.7002 23.1636C33.6899 23.6353 33.4861 24.1044 33.0889 24.5711L36.4545 25.4806L35.6826 26.1626ZM31.2179 25.3834L32.2146 24.5028C32.989 23.8186 33.076 23.1368 32.4757 22.4573C31.8754 21.7779 31.1881 21.7802 30.4137 22.4644L29.417 23.345L31.2179 25.3834Z" fill="#F0F0F0" fill-opacity="0.7"/>
<path d="M37.0561 16.1634C37.5886 15.7849 38.1556 15.57 38.7572 15.5187C39.3641 15.4635 39.9501 15.5745 40.5152 15.8517C41.0765 16.1235 41.5579 16.542 41.9596 17.1071C42.3613 17.6722 42.6001 18.2672 42.6762 18.892C42.7484 19.5114 42.6587 20.0986 42.4071 20.6537C42.1609 21.2049 41.7715 21.6698 41.239 22.0483C40.7065 22.4268 40.1341 22.6455 39.5217 22.7046C38.9147 22.7597 38.3307 22.6514 37.7694 22.3797C37.2043 22.1025 36.7209 21.6813 36.3192 21.1162C35.9176 20.5511 35.6806 19.9588 35.6084 19.3394C35.5324 18.7146 35.6202 18.1247 35.8718 17.5696C36.1288 17.0106 36.5236 16.5419 37.0561 16.1634ZM37.5486 16.8562C37.1519 17.1382 36.8616 17.4835 36.6778 17.8923C36.4955 18.2918 36.4364 18.7264 36.5004 19.1962C36.566 19.6567 36.761 20.1151 37.0854 20.5716C37.406 21.0226 37.7749 21.3575 38.1921 21.5762C38.6147 21.7911 39.0466 21.8808 39.4876 21.8454C39.9303 21.8007 40.3499 21.6374 40.7466 21.3555C41.1378 21.0774 41.4226 20.7359 41.6011 20.331C41.7849 19.9222 41.844 19.4876 41.7784 19.0271C41.7144 18.5573 41.5221 18.0969 41.2016 17.6459C40.8771 17.1894 40.5055 16.8565 40.0867 16.647C39.6695 16.4283 39.2396 16.3413 38.797 16.386C38.3559 16.4214 37.9398 16.5781 37.5486 16.8562Z" fill="#F0F0F0" fill-opacity="0.7"/>
<path d="M46.4743 17.8032L48.6407 16.5555L48.995 17.1708L46.0401 18.8726L42.5216 12.7634L43.3101 12.3093L46.4743 17.8032Z" fill="#F0F0F0" fill-opacity="0.7"/>
<path d="M51.3277 15.239L53.5764 14.1465L53.8866 14.7851L50.8195 16.2753L47.7386 9.93413L48.5571 9.53645L51.3277 15.239Z" fill="#F0F0F0" fill-opacity="0.7"/>
<path d="M62.9289 7.70764C63.1568 8.3836 63.2201 9.02006 63.1188 9.61702C63.0154 10.2077 62.7452 10.7314 62.3082 11.1883C61.8755 11.6367 61.2895 11.9854 60.5504 12.2346L58.4277 12.9501L56.1757 6.26945L58.2984 5.55393C59.0375 5.30478 59.7151 5.22765 60.331 5.32255C60.9511 5.409 61.4821 5.65914 61.9241 6.07296C62.364 6.48047 62.699 7.02536 62.9289 7.70764ZM60.2221 11.4799C61.0939 11.186 61.6848 10.7371 61.9948 10.1331C62.3047 9.52912 62.3224 8.81965 62.0477 8.00471C61.773 7.18976 61.3294 6.63575 60.717 6.34267C60.1089 6.04114 59.3657 6.03838 58.4876 6.33438L57.2936 6.73686L59.0281 11.8824L60.2221 11.4799Z" fill="#F0F0F0" fill-opacity="0.7"/>
<path d="M68.5716 2.70847C69.2109 2.57383 69.8166 2.60297 70.3886 2.79589C70.9672 2.98744 71.4603 3.32303 71.8679 3.80266C72.2741 4.27577 72.5486 4.85155 72.6915 5.53C72.8344 6.20845 72.8161 6.84932 72.6365 7.4526C72.4556 8.04936 72.1391 8.55205 71.6869 8.96067C71.2413 9.36791 70.6988 9.63885 70.0595 9.77349C69.4202 9.90813 68.808 9.88037 68.2229 9.69019C67.6444 9.49864 67.152 9.16631 66.7458 8.69321C66.3382 8.21357 66.0629 7.63453 65.9201 6.95608C65.7772 6.27763 65.7962 5.64003 65.9771 5.04327C66.1566 4.43999 66.4725 3.93404 66.9246 3.52542C67.3833 3.11543 67.9323 2.84311 68.5716 2.70847ZM68.7468 3.54023C68.2706 3.64052 67.8666 3.84141 67.535 4.14289C67.2085 4.43648 66.9809 4.81144 66.8521 5.26776C66.7286 5.71618 66.7245 6.21439 66.8399 6.76237C66.9539 7.30382 67.1586 7.75806 67.4539 8.12508C67.7557 8.49073 68.1159 8.7453 68.5345 8.88879C68.9582 9.02438 69.4081 9.04203 69.8844 8.94174C70.354 8.84282 70.7515 8.6433 71.0766 8.34319C71.4082 8.04171 71.6359 7.66675 71.7594 7.21833C71.8882 6.762 71.8955 6.26311 71.7815 5.72166C71.6661 5.17368 71.4581 4.72013 71.1577 4.361C70.8624 3.99398 70.5029 3.74268 70.0792 3.60708C69.6606 3.46359 69.2165 3.44131 68.7468 3.54023Z" fill="#F0F0F0" fill-opacity="0.7"/>
<path d="M84.6046 0.972046L83.3357 8.1342L82.2286 8.21548L80.1812 2.59031L78.9774 8.4542L77.8704 8.53549L75.5589 1.63622L76.5662 1.56226L78.3512 7.43732L79.5781 1.34112L80.5854 1.26715L82.6881 7.09884L83.6073 1.04527L84.6046 0.972046Z" fill="#F0F0F0" fill-opacity="0.7"/>
<path d="M93.3872 8.54669L92.4788 8.49405L89.1471 2.72167L88.8249 8.28234L87.9164 8.2297L88.3242 1.19151L89.2327 1.24414L92.5638 7.02651L92.8866 1.45585L93.795 1.50849L93.3872 8.54669Z" fill="#F0F0F0" fill-opacity="0.7"/>
<path d="M112.867 11.2735C112.763 11.5901 112.59 11.8596 112.349 12.082C112.107 12.3044 111.803 12.4501 111.437 12.519C111.07 12.588 110.659 12.5476 110.203 12.3977C109.76 12.252 109.39 12.0427 109.094 11.7698C108.806 11.4928 108.603 11.1805 108.486 10.8332C108.377 10.4816 108.366 10.12 108.453 9.74864L109.374 10.0515C109.331 10.2478 109.333 10.4554 109.38 10.6745C109.436 10.8893 109.545 11.0902 109.708 11.2771C109.88 11.4598 110.111 11.5991 110.403 11.6948C110.783 11.8197 111.107 11.8142 111.376 11.6781C111.646 11.5421 111.832 11.3157 111.936 10.9991C112.026 10.7267 112.026 10.4811 111.937 10.2622C111.853 10.0454 111.723 9.85519 111.545 9.69149C111.37 9.52146 111.12 9.32011 110.796 9.08744C110.418 8.80863 110.119 8.56638 109.898 8.36069C109.687 8.15075 109.53 7.8921 109.427 7.58472C109.331 7.27944 109.35 6.92413 109.483 6.5188C109.597 6.17047 109.781 5.89037 110.033 5.6785C110.291 5.46871 110.6 5.34199 110.958 5.29833C111.322 5.25676 111.717 5.30571 112.141 5.4452C112.8 5.66171 113.269 5.99496 113.549 6.44495C113.832 6.8886 113.923 7.36784 113.824 7.88265L112.893 7.57662C112.93 7.29397 112.871 7.01488 112.716 6.73935C112.561 6.46382 112.293 6.2636 111.913 6.13869C111.565 6.02419 111.256 6.02442 110.987 6.13938C110.719 6.24802 110.531 6.467 110.423 6.79633C110.338 7.05599 110.335 7.29002 110.413 7.4984C110.501 7.70253 110.63 7.88541 110.802 8.04702C110.975 8.20231 111.22 8.39524 111.538 8.62582C111.923 8.90672 112.224 9.15318 112.442 9.3652C112.666 9.5793 112.828 9.84638 112.926 10.1664C113.026 10.4801 113.007 10.8491 112.867 11.2735Z" fill="#F0F0F0" fill-opacity="0.7"/>
<path d="M120.69 8.87083C121.475 9.22348 122.035 9.7092 122.371 10.328C122.709 10.9407 122.825 11.6252 122.719 12.3815L121.844 11.9878C121.871 11.4884 121.758 11.032 121.505 10.6187C121.255 10.1993 120.866 9.87069 120.337 9.63285C119.917 9.44423 119.494 9.3781 119.067 9.43448C118.648 9.48751 118.255 9.66181 117.888 9.9574C117.531 10.2496 117.237 10.6511 117.007 11.1619C116.78 11.6666 116.676 12.1498 116.695 12.6115C116.72 13.0759 116.851 13.4854 117.086 13.8397C117.33 14.1907 117.662 14.4605 118.082 14.6492C118.611 14.887 119.113 14.9633 119.59 14.878C120.07 14.7867 120.488 14.5651 120.843 14.2133L121.719 14.6069C121.223 15.1883 120.633 15.5587 119.947 15.7182C119.264 15.8717 118.531 15.7721 117.746 15.4194C117.144 15.1488 116.674 14.7727 116.335 14.2914C115.998 13.8039 115.81 13.2551 115.77 12.6451C115.739 12.0317 115.865 11.4088 116.15 10.7764C116.437 10.138 116.82 9.62688 117.3 9.2431C117.785 8.86206 118.321 8.63862 118.906 8.57276C119.494 8.50083 120.089 8.60019 120.69 8.87083Z" fill="#F0F0F0" fill-opacity="0.7"/>
<path d="M125.799 19.6682L125.654 16.2536L124.798 15.7564L123.352 18.2468L122.565 17.7897L126.106 11.6935L128.112 12.8587C128.804 13.2606 129.226 13.7291 129.377 14.2644C129.532 14.7939 129.451 15.3324 129.133 15.8801C128.845 16.3759 128.474 16.6961 128.019 16.8409C127.569 16.98 127.059 16.9346 126.491 16.7049L126.69 20.1855L125.799 19.6682ZM125.13 15.1857L126.28 15.8537C127.173 16.3727 127.848 16.2402 128.303 15.4562C128.759 14.6722 128.54 14.0207 127.646 13.5017L126.496 12.8337L125.13 15.1857Z" fill="#F0F0F0" fill-opacity="0.7"/>
<path d="M135.776 17.8664C136.303 18.2527 136.685 18.7232 136.924 19.2779C137.167 19.8366 137.246 20.4278 137.161 21.0514C137.08 21.6697 136.834 22.2584 136.424 22.8176C136.014 23.3768 135.525 23.7909 134.956 24.0598C134.391 24.3233 133.805 24.4231 133.199 24.359C132.598 24.299 132.034 24.0758 131.508 23.6895C130.981 23.3033 130.593 22.8288 130.344 22.2662C130.1 21.7075 130.019 21.119 130.101 20.5008C130.186 19.8771 130.433 19.2857 130.843 18.7265C131.253 18.1673 131.741 17.756 132.306 17.4924C132.875 17.2235 133.462 17.1211 134.068 17.1851C134.68 17.2531 135.249 17.4802 135.776 17.8664ZM135.273 18.552C134.881 18.2642 134.462 18.0975 134.016 18.0517C133.579 18.0045 133.148 18.0852 132.723 18.2939C132.306 18.5011 131.932 18.8306 131.601 19.2822C131.274 19.7285 131.072 20.1841 130.996 20.649C130.925 21.1178 130.976 21.5559 131.149 21.9634C131.33 22.3694 131.618 22.7163 132.01 23.004C132.397 23.2878 132.811 23.4506 133.251 23.4924C133.697 23.5382 134.128 23.4575 134.545 23.2502C134.971 23.0416 135.347 22.7141 135.674 22.2678C136.005 21.8161 136.204 21.3586 136.271 20.8952C136.347 20.4303 136.295 19.9949 136.113 19.5888C135.94 19.1814 135.661 18.8357 135.273 18.552Z" fill="#F0F0F0" fill-opacity="0.7"/>
<path d="M136.768 26.9601L138.641 28.6154L138.171 29.1475L135.616 26.8897L140.284 21.6063L140.966 22.2088L136.768 26.9601Z" fill="#F0F0F0" fill-opacity="0.7"/>
<path d="M140.704 30.6817L142.459 32.4622L141.953 32.9606L139.56 30.5319L144.581 25.5832L145.22 26.2313L140.704 30.6817Z" fill="#F0F0F0" fill-opacity="0.7"/>
<path d="M152.055 39.8953C151.485 40.3254 150.902 40.5869 150.303 40.6797C149.71 40.7685 149.128 40.678 148.556 40.4081C147.994 40.1394 147.478 39.694 147.008 39.0717L145.657 37.2846L151.282 33.0341L152.632 34.8212C153.102 35.4435 153.39 36.0618 153.495 36.676C153.609 37.2916 153.54 37.8746 153.287 38.4248C153.04 38.9711 152.629 39.4612 152.055 39.8953ZM147.62 38.5215C148.174 39.2554 148.787 39.6739 149.458 39.7768C150.129 39.8797 150.808 39.6719 151.494 39.1534C152.18 38.6349 152.565 38.0388 152.649 37.3651C152.743 36.6928 152.51 35.987 151.952 35.2477L151.192 34.2424L146.86 37.5162L147.62 38.5215Z" fill="#F0F0F0" fill-opacity="0.7"/>
<path d="M158.347 43.2918C158.679 43.8543 158.846 44.4374 158.846 45.0411C158.85 45.6505 158.69 46.2251 158.366 46.7649C158.048 47.3012 157.591 47.7457 156.994 48.0983C156.397 48.451 155.784 48.6389 155.155 48.662C154.532 48.6818 153.954 48.5429 153.422 48.2454C152.894 47.9537 152.463 47.5266 152.131 46.9641C151.799 46.4016 151.629 45.8127 151.622 45.1975C151.618 44.5881 151.775 44.0152 152.093 43.4789C152.417 42.9391 152.877 42.4929 153.474 42.1403C154.071 41.7877 154.681 41.6015 155.304 41.5817C155.933 41.5586 156.514 41.6957 157.046 41.9932C157.581 42.2964 158.015 42.7293 158.347 43.2918ZM157.615 43.7241C157.368 43.3051 157.048 42.9868 156.656 42.7692C156.274 42.5539 155.846 42.4584 155.372 42.4826C154.908 42.5091 154.434 42.6648 153.952 42.9496C153.476 43.2311 153.111 43.5704 152.858 43.9677C152.608 44.3708 152.482 44.7935 152.481 45.236C152.488 45.6808 152.615 46.1127 152.863 46.5317C153.107 46.945 153.423 47.2576 153.812 47.4695C154.203 47.6871 154.631 47.7826 155.096 47.7561C155.569 47.7319 156.044 47.5791 156.521 47.2976C157.003 47.0128 157.366 46.6706 157.61 46.2709C157.863 45.8736 157.986 45.4526 157.979 45.0077C157.981 44.5653 157.859 44.1374 157.615 43.7241Z" fill="#F0F0F0" fill-opacity="0.7"/>
<path d="M165.083 57.8084L157.893 58.9062L157.461 57.8838L162.131 54.1388L156.191 54.8814L155.758 53.8591L161.55 49.4549L161.944 50.3851L156.953 53.9619L163.12 53.1666L163.514 54.0968L158.666 57.9605L164.694 56.8874L165.083 57.8084Z" fill="#F0F0F0" fill-opacity="0.7"/>
<path d="M160.683 68.4434L160.441 67.566L164.841 62.5598L159.471 64.037L159.229 63.1596L166.027 61.2898L166.268 62.1672L161.859 67.1761L167.239 65.6962L167.48 66.5736L160.683 68.4434Z" fill="#F0F0F0" fill-opacity="0.7"/>
</svg>
