<svg width="1510" height="1013" viewBox="0 0 1510 1013" fill="none" xmlns="http://www.w3.org/2000/svg">
<path d="M845.386 805.648C951.984 775.681 1024.89 703.33 1008.23 644.048C991.564 584.766 891.638 561.002 785.037 590.969C678.436 620.937 605.528 693.287 622.193 752.569C638.858 811.851 738.785 835.615 845.386 805.648Z" stroke="white" stroke-opacity="0.5" stroke-width="0.4" stroke-miterlimit="10"/>
<path d="M847.312 805.106C981.025 767.516 1072.53 676.918 1051.68 602.749C1030.83 528.58 905.525 498.927 771.808 536.517C638.091 574.107 546.595 664.705 567.445 738.874C588.295 813.043 713.596 842.7 847.312 805.106Z" stroke="white" stroke-opacity="0.5" stroke-width="0.4" stroke-miterlimit="10"/>
<path d="M884.535 967.08C1294.72 851.77 1569.26 552.052 1497.75 297.645C1426.23 43.2379 1035.73 -69.5226 625.546 45.7879C215.358 161.098 -59.1888 460.813 12.3286 715.22C83.8466 969.63 474.347 1082.39 884.535 967.08Z" stroke="white" stroke-opacity="0.5" stroke-width="0.4" stroke-miterlimit="10"/>
<path d="M855.038 845.521C1037.93 794.109 1161.6 664.934 1131.26 557.004C1100.92 449.074 928.064 403.259 745.164 454.674C562.267 506.09 438.596 635.264 468.937 743.195C499.278 851.121 672.141 896.941 855.038 845.521Z" stroke="white" stroke-opacity="0.5" stroke-width="0.4" stroke-miterlimit="10"/>
<path d="M865.712 887.19C1124.1 814.551 1297.77 628.302 1253.6 471.192C1209.44 314.082 964.164 245.604 705.772 318.243C447.377 390.882 273.711 577.13 317.877 734.24C362.043 891.35 607.317 959.83 865.712 887.19Z" stroke="white" stroke-opacity="0.5" stroke-width="0.4" stroke-miterlimit="10"/>
<path d="M874.885 927.2C1209.31 833.189 1433.47 589.961 1375.55 383.937C1317.63 177.913 999.576 87.108 665.15 181.12C330.726 275.132 106.572 518.36 164.489 724.384C222.405 930.41 540.46 1021.21 874.885 927.2Z" stroke="white" stroke-opacity="0.5" stroke-width="0.4" stroke-miterlimit="10"/>
<path d="M884.535 967.08C1294.72 851.77 1569.26 552.052 1497.75 297.645C1426.23 43.2379 1035.73 -69.5226 625.546 45.7879C215.358 161.098 -59.1888 460.813 12.3286 715.22C83.8466 969.63 474.347 1082.39 884.535 967.08Z" stroke="white" stroke-opacity="0.5" stroke-width="0.4" stroke-miterlimit="10"/>
<path d="M845.386 805.648C951.984 775.681 1024.89 703.33 1008.23 644.048C991.564 584.766 891.638 561.002 785.037 590.969C678.436 620.937 605.528 693.287 622.193 752.569C638.858 811.851 738.785 835.615 845.386 805.648Z" stroke="white" stroke-opacity="0.5" stroke-width="0.4" stroke-miterlimit="10"/>
<path d="M709.773 814.685C701.762 806.768 696.05 797.28 693.08 786.714C679.272 737.594 730.391 680.082 807.14 658.507C883.889 636.931 957.485 659.383 971.295 708.503C973.865 717.641 974.095 727.129 972.555 736.807" stroke="white" stroke-opacity="0.5" stroke-width="0.4" stroke-miterlimit="10"/>
<path d="M735.435 817.859C732.902 814.271 730.854 810.239 729.734 806.253C720.29 772.66 760.629 731.831 819.948 715.156C879.267 698.48 934.973 712.311 944.413 745.903C945.613 750.174 945.884 754.397 945.594 758.78" stroke="white" stroke-opacity="0.5" stroke-width="0.4" stroke-miterlimit="10"/>
<path d="M772.193 816.874C765.906 794.507 792.526 767.53 831.584 756.55C870.643 745.57 907.424 754.725 913.704 777.092" stroke="white" stroke-opacity="0.5" stroke-width="0.4" stroke-miterlimit="10"/>
<path d="M416.762 125.256C491.102 212.436 678.836 456.115 794.035 816.967" stroke="white" stroke-opacity="0.5" stroke-width="0.4" stroke-miterlimit="10"/>
<path d="M861.372 3.38477C843.644 119.272 813.089 422.381 901.856 786.657" stroke="white" stroke-opacity="0.5" stroke-width="0.4" stroke-miterlimit="10"/>
<path d="M718.767 815.274C718.767 815.274 598.441 516.449 132.633 333.936" stroke="white" stroke-opacity="0.5" stroke-width="0.4" stroke-miterlimit="10"/>
<path d="M960.404 747.346C960.404 747.346 907.854 432.589 1203.25 37.1211" stroke="white" stroke-opacity="0.5" stroke-width="0.4" stroke-miterlimit="10"/>
<path d="M1349.85 706.421C1349.85 706.421 1152.71 594.545 1004.64 719.97" stroke="white" stroke-opacity="0.5" stroke-width="0.4" stroke-miterlimit="10"/>
<path d="M1490.85 273.096C1490.85 273.096 1146.9 395.791 999.875 703.009" stroke="white" stroke-opacity="0.5" stroke-width="0.4" stroke-miterlimit="10"/>
<path d="M1056.71 905.17C1056.71 905.17 1019.37 797.299 936.547 769.634" stroke="white" stroke-opacity="0.5" stroke-width="0.4" stroke-miterlimit="10"/>
<path d="M368.191 983.42C368.191 983.42 478.622 785.081 670.862 814.84" stroke="white" stroke-opacity="0.5" stroke-width="0.4" stroke-miterlimit="10"/>
<path d="M5.96875 692.596C5.96875 692.596 380.421 613.154 665.823 796.916" stroke="white" stroke-opacity="0.5" stroke-width="0.4" stroke-miterlimit="10"/>
<path d="M722.926 1000.04C722.926 1000.04 698.589 888.51 754.866 821.745" stroke="white" stroke-opacity="0.5" stroke-width="0.4" stroke-miterlimit="10"/>
<path d="M717.684 812.387C601 593 420.568 452.732 132.684 334.387" stroke="#FF0000"/>
</svg>
