<svg width="48" height="58" viewBox="0 0 48 58" fill="none" xmlns="http://www.w3.org/2000/svg">
<path d="M45.7879 22.8791C44.6588 22.8791 43.7674 25.583 43.7377 28.9109C43.708 22.0174 41.0635 16.4611 37.7654 16.4611C35.8637 16.4611 34.1701 18.3033 33.0707 21.2152C32.8033 21.958 31.7336 21.8689 31.5553 21.126L30.6342 17.293C29.208 11.1424 26.7418 7.04201 23.8893 7.04201C19.4918 7.04201 15.9262 16.877 15.9262 29C15.9262 29.208 15.9262 29.3863 15.9262 29.5943C15.9262 29.3863 15.9262 29.208 15.9262 29C15.9559 12.9846 12.3904 0 7.96311 0C3.56557 0 0 12.9846 0 29C0 45.0154 3.56557 58 7.96311 58C9.7459 58 11.4098 55.8607 12.7172 52.2654L12.8064 52.0277C12.8955 51.7603 12.9846 51.4928 13.1035 51.1957L15.7777 43.3514C16.1342 42.3412 17.5605 42.3412 17.8873 43.3811C19.3432 48.0164 21.5123 50.958 23.9191 50.958C28.1086 50.958 31.5256 42.0738 31.8525 30.7828C32.2684 36.8443 34.7643 41.5092 37.7654 41.5092C39.9939 41.5092 41.9252 38.9539 42.9652 35.1506L43.4406 33.4273C43.5594 32.9518 44.2131 32.9221 44.3914 33.3975C44.7479 34.4375 45.2531 35.0912 45.7879 35.0912C46.917 35.0912 47.8381 32.3576 47.8381 28.9703C47.8381 25.6127 46.917 22.8791 45.7879 22.8791Z" fill="white"/>
</svg>
