<svg width="99" height="36" viewBox="0 0 99 36" fill="none" xmlns="http://www.w3.org/2000/svg">
<path fill-rule="evenodd" clip-rule="evenodd" d="M61.4196 33.3034H62.6378V34.5513H61.4196V33.3034ZM64.6286 32.2337H66.8868C66.6194 32.828 66.2331 33.3034 65.7874 33.7194C65.2823 33.3034 64.896 32.828 64.6286 32.2337ZM63.5887 31.4909V32.2634C63.9155 32.9468 64.6583 33.7194 65.1635 34.2245C64.6286 34.581 64.0046 34.8187 63.351 34.997V32.6497H60.7362V35.621H61.4493V35.2347H63.3807V35.1159C63.4027 35.1544 63.4257 35.194 63.449 35.234C63.5515 35.4099 63.6591 35.5946 63.7075 35.7399C64.48 35.5021 65.1932 35.205 65.8171 34.7593C66.4114 35.205 67.1245 35.5021 67.9268 35.7101C68.0456 35.4724 68.2833 35.1456 68.4319 34.9673C67.6891 34.8187 67.0354 34.5513 66.4708 34.2245C67.1245 33.5708 67.6891 32.5606 67.9862 31.4909H63.5887ZM60.7065 32.1149H63.351V31.4612H60.7065V32.1149ZM64.3909 27.9847V28.9355C64.3909 29.5298 64.2423 30.1835 63.3212 30.6886V30.3024H60.7065V30.956H63.3212V30.7481C63.4698 30.8966 63.7075 31.164 63.8264 31.3423C64.896 30.7183 65.1337 29.7675 65.1337 28.9653V28.7573H66.4114V29.9458C66.4114 30.6886 66.56 30.9858 67.2434 30.9858H67.7485H68.1942V30.2726H67.7485H67.3028C67.1839 30.2726 67.1839 30.1835 67.1839 29.9458V27.955H64.3909V27.9847ZM61.2413 27.955C61.479 28.3116 61.7464 28.8167 61.8653 29.1435H60.3202V29.7972H63.6778V29.1435H61.895L62.5487 28.787C62.4508 28.5178 62.232 28.168 62.025 27.8371C61.9807 27.7663 61.9369 27.6963 61.895 27.6282L61.2413 27.955ZM3.0333 30.5403V29.9163H7.51998L7.99539 30.2728C7.49027 30.778 6.80686 31.3128 6.09375 31.7288C6.30173 31.8179 6.59884 31.9962 6.74742 32.0853L6.74744 32.0853H8.0251H8.79764C8.41137 32.739 7.87654 33.6304 7.46055 34.0761L6.80686 33.779C7.01486 33.5116 7.28227 33.155 7.51998 32.7985H5.91547V34.8487C5.91547 35.2944 5.82633 35.5023 5.46977 35.6212C5.17329 35.72 4.56865 35.7161 3.92916 35.712C3.79959 35.7112 3.66858 35.7103 3.53842 35.7103V34.9972H4.90522C5.0835 34.9972 5.11322 34.9378 5.11322 34.8189V32.7687H3.00358V32.0853H5.32121C4.81609 31.8179 4.22182 31.5208 3.7167 31.3128L4.22182 30.8374L4.38301 30.9042C4.70765 31.0385 5.08469 31.1945 5.44006 31.3722C5.82633 31.1345 6.24232 30.8374 6.59887 30.5403H3.0333ZM4.72694 28.2226L4.72694 28.2226C4.66751 28.0889 4.60809 27.9552 4.54867 27.8364L5.35092 27.6581C5.51028 27.9237 5.66965 28.2843 5.78657 28.5488L5.82633 28.6386H8.79764V29.3814H2.32018V31.0157C2.32018 32.3825 2.20133 34.4327 1.42879 35.7698H0.65625C1.36936 34.5218 1.51793 32.2933 1.51793 31.0157V28.6089H4.90522C4.8458 28.49 4.78637 28.3563 4.72694 28.2226ZM34.8268 35.0563C36.0747 34.5512 37.2633 33.6004 37.8872 32.5307H38.8678C38.125 33.749 36.7284 35.0563 35.4211 35.71C35.2725 35.502 35.0348 35.2346 34.8268 35.0563ZM35.2725 32.1444C36.1342 31.6988 37.1741 30.9262 37.709 30.1834H38.7489C38.0655 31.0451 36.7879 32.2039 35.8668 32.7387C35.7182 32.5604 35.4805 32.293 35.2725 32.1444ZM33.6086 28.9354H32.3903V31.0451H33.6086V28.9354ZM30.6967 28.9354V28.1926H35.2131V28.9354H34.4405V31.0451H35.3319V31.8176H34.4405V35.7397H33.6383V31.8176H32.3903C32.3606 33.2735 31.9743 34.7295 31.2315 35.7397H30.251C31.1721 34.7592 31.6178 33.0358 31.6475 31.8176H30.5778V31.0451H31.6475V28.9354H30.6967ZM35.1833 29.6485C36.0153 29.2326 36.9958 28.4897 37.501 27.8063V27.836H38.4815C37.8278 28.7274 36.669 29.7377 35.7776 30.2428C35.629 30.0348 35.3913 29.7971 35.1833 29.6485ZM92.7971 33.3034H91.3708V34.5513H92.7971V33.3034ZM90.6577 35.621V32.6497H93.5102V35.2347H91.3708V35.621H90.6577ZM93.4508 32.0851H90.5983V31.4612H93.4508V32.0851ZM93.4805 30.956H90.5983V30.3024H93.4805V30.956ZM95.4712 30.6292V27.8362H96.3032V30.6292H98.0266V31.4314H96.3032V35.7399H95.4712V31.4314H93.837V30.6292H95.4712ZM91.8462 29.1435C91.7274 28.8167 91.46 28.3116 91.2223 27.955L91.8462 27.6282C91.8882 27.6963 91.9319 27.7663 91.9763 27.8371C92.1832 28.168 92.402 28.5178 92.4999 28.787L91.8462 29.1435ZM90.212 29.1435H91.8462H93.837V29.7972H90.212V29.1435Z" fill="white"/>
<path d="M39.6696 4.86792C35.1532 4.86792 31.4688 8.55235 31.4688 13.0687C31.4688 17.5851 35.1532 21.2696 39.6696 21.2696H47.8704V13.0687C47.8704 8.55235 44.186 4.86792 39.6696 4.86792ZM44.2454 17.6446H39.6696C37.144 17.6446 35.0938 15.5944 35.0938 13.0687C35.0938 10.5431 37.144 8.49292 39.6696 8.49292C42.1952 8.49292 44.2454 10.5431 44.2454 13.0687V17.6446Z" fill="white"/>
<path d="M84.9814 12.7121C84.9814 10.0082 87.1802 7.83911 89.8544 7.83911C92.5583 7.83911 94.7273 10.0379 94.7273 12.7121V17.585H89.8544C87.1802 17.585 84.9814 15.416 84.9814 12.7121ZM81.3564 12.7121C81.3564 17.4067 85.1597 21.21 89.8544 21.21H98.3524V12.7121C98.3524 8.01739 94.5491 4.21411 89.8544 4.21411C85.1597 4.21411 81.3564 8.0471 81.3564 12.7121Z" fill="white"/>
<path d="M17.7705 14.9109V21.1506H21.3955V14.9109C21.3955 11.5236 24.1588 8.76025 27.5461 8.76025V5.13525C22.168 5.13525 17.7705 9.5328 17.7705 14.9109Z" fill="white"/>
<path d="M63.7368 19.9027L61.7163 16.9017C61.0329 17.3771 60.2306 17.6148 59.3987 17.6148C57.1108 17.6148 55.2685 15.7726 55.2685 13.4847C55.2685 11.1968 57.1108 9.35456 59.3987 9.35456C60.1118 9.35456 60.7952 9.53284 61.4192 9.8894L63.1722 6.73981C62.0134 6.08612 60.706 5.75928 59.3987 5.75928C55.12 5.75928 51.6436 9.23571 51.6436 13.5144C51.6436 17.7931 55.12 21.2695 59.3987 21.2695C60.9735 21.2101 62.4591 20.7644 63.7368 19.9027Z" fill="white"/>
<path d="M77.4348 8.8791V5.2541H71.2842V0.5H67.6592V11.5236C67.6592 16.9016 72.0567 21.2992 77.4348 21.2992V17.6742C74.0475 17.6742 71.2842 14.9109 71.2842 11.5236V8.8791H77.4348Z" fill="white"/>
<path d="M8.7678 4.51123H14.235V0.88623H8.7678C4.37026 0.88623 0.804688 4.45181 0.804688 8.84935V21.1209H4.42969V13.4252H12.6008V9.80017H4.42969V8.84935C4.42969 6.4723 6.39075 4.51123 8.7678 4.51123Z" fill="white"/>
</svg>
